<svg width="47" height="47" viewBox="0 0 47 47" fill="none" xmlns="http://www.w3.org/2000/svg">
<path d="M23.7 46.2C36.4025 46.2 46.7 35.9025 46.7 23.2C46.7 10.4974 36.4025 0.199951 23.7 0.199951C10.9974 0.199951 0.699951 10.4974 0.699951 23.2C0.699951 35.9025 10.9974 46.2 23.7 46.2Z" fill="white"/>
<path d="M21.0999 34.6C20.0999 33.6 18.9999 32.5 17.8999 31.4C20.5999 28.7 23.2999 26 25.9999 23.3C23.2999 20.6 20.5999 17.9 17.8999 15.2C18.9999 14.1 20.0999 13 21.0999 12C24.8999 15.8 28.5999 19.5 32.3999 23.3C28.6999 27 24.8999 30.8 21.0999 34.6Z" fill="black"/>
</svg>
