<svg width="47" height="47" viewBox="0 0 47 47" fill="none" xmlns="http://www.w3.org/2000/svg">
<path d="M23.3999 46.2C36.1025 46.2 46.3999 35.9025 46.3999 23.2C46.3999 10.4974 36.1025 0.199951 23.3999 0.199951C10.6974 0.199951 0.399902 10.4974 0.399902 23.2C0.399902 35.9025 10.6974 46.2 23.3999 46.2Z" fill="white"/>
<path d="M25.8998 34.6C26.8998 33.6 27.9999 32.5 29.0999 31.4C26.3999 28.7 23.6998 26 20.9998 23.3C23.6998 20.6 26.3999 17.9 29.0999 15.2C27.9999 14.1 26.8998 13 25.8998 12C22.0998 15.8 18.3999 19.5 14.5999 23.3C18.2999 27 22.0998 30.8 25.8998 34.6Z" fill="black"/>
</svg>
