<svg width="25" height="25" viewBox="0 0 25 25" fill="none" xmlns="http://www.w3.org/2000/svg">
<path d="M12.5 24.7C19.1274 24.7 24.5 19.3274 24.5 12.7C24.5 6.07253 19.1274 0.699951 12.5 0.699951C5.87258 0.699951 0.5 6.07253 0.5 12.7C0.5 19.3274 5.87258 24.7 12.5 24.7Z" fill="white"/>
<path d="M12.5004 14.1001C11.8004 14.8001 11.2004 15.4001 10.6004 16.0001C9.80035 16.8001 9.00039 17.6001 8.20039 18.4001C7.80039 18.8001 7.10039 18.8001 6.70039 18.4001C6.30039 18.0001 6.30039 17.4001 6.70039 16.9001C8.00039 15.6001 9.40039 14.2001 10.7004 12.9001C10.8004 12.8001 10.9004 12.7001 11.0004 12.6001C10.9004 12.5001 10.8004 12.4001 10.8004 12.4001C9.50037 11.1001 8.10037 9.70011 6.80037 8.40011C6.30037 7.90011 6.40035 7.0001 7.10035 6.7001C7.50035 6.5001 7.90037 6.60009 8.30037 7.00009C9.60037 8.30009 10.9004 9.60009 12.3004 11.0001C12.4004 11.1001 12.5004 11.2001 12.6004 11.3001C12.7004 11.2001 12.8004 11.1001 12.8004 11.1001C14.1004 9.80006 15.5004 8.40006 16.8004 7.10006C17.3004 6.60006 18.2004 6.70011 18.5004 7.40011C18.7004 7.80011 18.6004 8.20006 18.2004 8.60006C16.9004 9.90006 15.5004 11.3001 14.2004 12.6001C14.1004 12.7001 14.0004 12.8001 13.9004 12.9001C14.0004 13.0001 14.1004 13.1001 14.2004 13.2001C15.5004 14.5001 16.9004 15.9001 18.2004 17.2001C18.6004 17.6001 18.6004 18.0001 18.4004 18.4001C18.2004 18.8001 17.8004 19.0001 17.3004 18.9001C17.1004 18.8001 16.9004 18.7001 16.7004 18.5001C15.4004 17.2001 14.1004 15.9001 12.8004 14.6001C12.7004 14.3001 12.7004 14.2001 12.5004 14.1001Z" fill="#969696"/>
</svg>
