<svg width="25" height="25" viewBox="0 0 25 25" fill="none" xmlns="http://www.w3.org/2000/svg">
<path d="M12.5 25C5.7 25 0 19.3 0 12.5C0 5.7 5.7 0 12.5 0C19.3 0 25 5.7 25 12.5C25 19.3 19.3 25 12.5 25ZM12.5 1.5C6.5 1.5 1.5 6.5 1.5 12.5C1.5 18.5 6.5 23.5 12.5 23.5C18.5 23.5 23.5 18.5 23.5 12.5C23.5 6.5 18.5 1.5 12.5 1.5Z" fill="#0D4CD3"/>
<path d="M17.9002 13.2H7.00018C6.60018 13.2 6.2002 12.8999 6.2002 12.3999C6.2002 11.9999 6.50018 11.5999 7.00018 11.5999H18.0002C18.4002 11.5999 18.8002 11.8999 18.8002 12.3999C18.8002 12.8999 18.4002 13.2 17.9002 13.2Z" fill="#0D4CD3"/>
<path d="M12.5002 18.7998C12.1002 18.7998 11.7002 18.5 11.7002 18V7C11.7002 6.6 12.0002 6.19995 12.5002 6.19995C12.9002 6.19995 13.3002 6.5 13.3002 7V18C13.3002 18.3 12.9002 18.7998 12.5002 18.7998Z" fill="#0D4CD3"/>
</svg>
