<svg width="20" height="16" viewBox="0 0 20 16" fill="none" xmlns="http://www.w3.org/2000/svg">
<path d="M0.900146 2.89978C0.900146 2.79978 0.900146 2.59976 0.900146 2.49976C0.900146 2.39976 0.900122 2.19973 1.00012 2.09973C1.20012 1.49973 1.5001 0.99978 2.1001 0.89978C2.3001 0.79978 2.50011 0.799805 2.80011 0.799805C7.80011 0.799805 12.8001 0.799805 17.8001 0.799805C17.9001 0.799805 18.0001 0.799805 18.1001 0.799805C18.4001 0.799805 18.7001 0.999707 19.0001 1.19971C19.4001 1.49971 19.5001 1.8998 19.6001 2.2998C19.6001 2.3998 19.6001 2.59971 19.6001 2.69971C19.5001 3.09971 19.4001 3.3998 19.3001 3.7998C18.9001 4.4998 18.4001 4.99978 17.8001 5.39978C15.9001 6.69978 14.1001 7.9998 12.2001 9.2998C11.9001 9.4998 11.6001 9.69978 11.2001 9.89978C10.6001 10.1998 10.0001 10.1998 9.40015 9.89978C9.10015 9.69978 8.9001 9.59978 8.6001 9.39978C6.7001 7.99978 4.70011 6.6998 2.80011 5.2998C1.90011 4.6998 1.20015 3.99978 0.900146 2.89978Z" fill="#0D4CD3"/>
<path d="M1 5.7998C2.1 6.8998 3.49999 7.69973 4.79999 8.59973C5.09999 8.79973 5.40001 8.99971 5.70001 9.19971L5.59998 9.2998C4.09998 10.7998 2.59998 12.2998 1.09998 13.7998C1.09998 13.7998 1.1 13.7998 1 13.8998C1 11.1998 1 8.4998 1 5.7998Z" fill="#0D4CD3"/>
<path d="M19.7 13.8999C19.6 13.8999 19.6 13.7999 19.5 13.7999C18 12.2999 16.6 10.8999 15.1 9.3999L15 9.29993C15.1 9.29993 15.1 9.19983 15.2 9.19983C16.2 8.49983 17.3 7.79988 18.3 6.99988C18.8 6.69988 19.2 6.2999 19.7 5.8999C19.7 8.4999 19.7 11.1999 19.7 13.8999Z" fill="#0D4CD3"/>
<path d="M13.8001 10.0996C15.6001 11.8996 17.3001 13.5997 19.1001 15.3997C18.9001 15.5997 18.6001 15.7997 18.2001 15.7997C18.1001 15.7997 18.0001 15.7997 17.9001 15.7997C12.9001 15.7997 7.80011 15.7997 2.80011 15.7997C2.40011 15.7997 2.0001 15.6997 1.6001 15.3997C3.4001 13.5997 5.10015 11.8996 6.90015 10.0996C7.30015 10.3996 7.7001 10.6997 8.1001 10.8997C8.6001 11.1997 9.20011 11.4996 9.80011 11.6996C10.4001 11.8996 11.0001 11.6996 11.6001 11.4996C12.3001 11.1996 12.9001 10.7997 13.5001 10.2997C13.6001 10.1997 13.7001 10.0996 13.8001 10.0996Z" fill="#0D4CD3"/>
</svg>
