<svg width="18" height="15" viewBox="0 0 18 15" fill="none" xmlns="http://www.w3.org/2000/svg">
<path opacity="0.5" d="M2.00012 6.2998C6.50012 4.2998 9.6001 2.9999 11.1001 2.3999C15.4001 0.599902 16.3001 0.299805 16.9001 0.299805C17.0001 0.299805 17.3001 0.3 17.5001 0.5C17.7001 0.6 17.7001 0.799902 17.7001 0.899902C17.7001 0.999902 17.7001 1.3 17.7001 1.5C17.5001 4 16.5001 9.9002 15.9001 12.7002C15.7001 13.9002 15.3001 14.2998 14.8001 14.2998C13.9001 14.3998 13.2001 13.7001 12.3001 13.1001C10.9001 12.2001 10.2001 11.5998 8.80011 10.7998C7.30011 9.7998 8.3001 9.1998 9.1001 8.2998C9.3001 8.0998 13.3001 4.4001 13.4001 4.1001C13.4001 4.1001 13.4001 3.8998 13.3001 3.7998C13.2001 3.6998 13.1001 3.6998 13.0001 3.7998C12.9001 3.7998 10.7001 5.3001 6.40015 8.1001C5.80015 8.5001 5.20013 8.7002 4.70013 8.7002C4.10013 8.7002 3.10011 8.4001 2.30011 8.1001C1.30011 7.8001 0.600098 7.6001 0.600098 7.1001C0.900098 6.9001 1.30012 6.5998 2.00012 6.2998Z" fill="white"/>
</svg>
