<svg width="23" height="14" viewBox="0 0 23 14" fill="none" xmlns="http://www.w3.org/2000/svg">
<path opacity="0.5" fill-rule="evenodd" clip-rule="evenodd" d="M21.2998 13.7998H18.8998C17.9998 13.7998 17.6997 13.0999 16.0997 11.3999C14.6997 9.9999 14.0997 9.8999 13.6997 9.8999C13.1997 9.8999 13.0997 10.0002 13.0997 10.7002V12.7998C13.0997 13.3998 12.8998 13.7002 11.3998 13.7002C8.89978 13.7002 6.09973 12.1998 4.09973 9.2998C1.09973 5.0998 0.299805 1.9999 0.299805 1.3999C0.299805 0.999902 0.399731 0.700195 1.09973 0.700195H3.49976C4.09976 0.700195 4.29973 1.0001 4.59973 1.6001C5.79973 5.0001 7.69973 8 8.59973 8C8.89973 8 8.99976 7.9001 8.99976 7.1001V3.6001C8.89976 2.0001 7.99976 1.7998 7.99976 1.2998C7.99976 0.999805 8.19973 0.700195 8.59973 0.700195H12.3998C12.8998 0.700195 13.0997 1.0001 13.0997 1.6001V6.2998C13.0997 6.7998 13.2998 7 13.4998 7C13.7998 7 14.0997 6.7998 14.5997 6.2998C16.2997 4.3998 17.4998 1.3999 17.4998 1.3999C17.6998 0.999902 17.8998 0.700195 18.4998 0.700195H20.8998C21.5998 0.700195 21.7997 1.1001 21.5997 1.6001C21.2997 3.0001 18.3998 7.1001 18.3998 7.1001C18.0998 7.5001 17.9998 7.7002 18.3998 8.2002C18.6998 8.6002 19.4998 9.2999 19.9998 9.8999C20.9998 11.0999 21.7998 12.0002 21.9998 12.7002C22.2998 13.4002 21.9998 13.7998 21.2998 13.7998Z" fill="white"/>
</svg>
