<svg width="24" height="18" viewBox="0 0 24 18" fill="none" xmlns="http://www.w3.org/2000/svg">
<path d="M16.8998 10.7998C17.5998 9.7998 17.8998 8.8001 17.8998 7.6001C17.8998 7.3001 17.8998 6.9 17.7998 6.5L14.2998 12.7998C15.2998 12.4998 16.1998 11.7998 16.8998 10.7998Z" fill="white"/>
<path d="M17.3998 2.1001V2C17.3998 1.9 17.2997 1.7002 17.1997 1.7002C17.1997 1.7002 17.0998 1.6001 16.9998 1.6001C16.8998 1.5001 16.6997 1.3999 16.5997 1.3999C16.4997 1.2999 16.2997 1.2002 16.1997 1.2002C15.9997 1.1002 15.8998 1.1 15.7998 1C15.6998 0.9 15.5997 0.899902 15.5997 0.899902C15.3997 0.899902 15.2997 1.0001 15.1997 1.1001L14.4998 2.2998C13.6998 2.1998 12.9997 2.1001 12.1997 2.1001C9.89971 2.1001 7.79978 2.6998 5.89978 3.7998C3.99978 4.8998 2.39973 6.5 1.09973 8.5C0.899731 8.8 0.799805 9.0999 0.799805 9.3999C0.799805 9.6999 0.899731 9.9998 1.09973 10.2998C1.79973 11.4998 2.69971 12.4999 3.69971 13.3999C4.69971 14.2999 5.79976 15.0001 6.99976 15.6001C6.59976 16.2001 6.39978 16.6002 6.39978 16.7002C6.39978 16.9002 6.49973 17.0001 6.59973 17.1001C7.59973 17.7001 8.1998 18 8.2998 18C8.4998 18 8.59971 17.8998 8.69971 17.7998L9.2998 16.7002C10.1998 15.1002 11.4998 12.7 13.2998 9.5C15.0998 6.3 16.4998 3.7001 17.3998 2.1001ZM7.89978 14C5.69978 13 3.89976 11.3998 2.49976 9.2998C3.79976 7.2998 5.3998 5.7998 7.2998 4.7998C6.7998 5.6998 6.49976 6.6001 6.49976 7.6001C6.49976 8.5001 6.69973 9.4002 7.09973 10.2002C7.49973 11.0002 8.0998 11.7002 8.7998 12.2002L7.89978 14ZM12.5997 4.7998C12.4997 4.8998 12.2997 5 12.1997 5C11.4997 5 10.8998 5.2998 10.2998 5.7998C9.7998 6.2998 9.49976 6.9002 9.49976 7.7002C9.49976 7.9002 9.39981 8.0001 9.2998 8.1001C9.1998 8.2001 8.99978 8.2998 8.89978 8.2998C8.69978 8.2998 8.59976 8.2001 8.49976 8.1001C8.39976 8.0001 8.2998 7.8002 8.2998 7.7002C8.2998 6.6002 8.69978 5.7 9.39978 5C10.1998 4.2 11.0997 3.8999 12.0997 3.8999C12.2997 3.8999 12.3998 4.0001 12.4998 4.1001C12.5998 4.2001 12.6997 4.4 12.6997 4.5C12.7997 4.5 12.6997 4.6998 12.5997 4.7998Z" fill="white"/>
<path d="M23.2998 8.3999C22.7998 7.5999 22.1998 6.8001 21.4998 6.1001C20.7998 5.3001 19.9997 4.7002 19.1997 4.2002L18.3998 5.6001C19.7998 6.6001 20.9998 7.7998 21.9998 9.2998C20.9998 10.8998 19.6997 12.2002 18.1997 13.2002C16.6997 14.2002 14.9997 14.7999 13.1997 14.8999L12.2998 16.6001C14.1998 16.6001 15.8997 16.1999 17.5997 15.3999C19.2997 14.5999 20.6998 13.5 21.9998 12C22.5998 11.3 22.9998 10.7002 23.3998 10.2002C23.5998 9.9002 23.6997 9.5998 23.6997 9.2998C23.4997 8.8998 23.3998 8.5999 23.2998 8.3999Z" fill="white"/>
</svg>
