<svg width="19" height="19" viewBox="0 0 19 19" fill="none" xmlns="http://www.w3.org/2000/svg">
<path d="M18.7 9.2002C18.7 9.60019 18.7 9.89981 18.7 10.2998C18.7 10.3998 18.7 10.4 18.7 10.5C18.6 11.8 18.3 12.9 17.7 14C16.3 16.5 14.2 18.1001 11.3 18.6001C11 18.7001 10.6 18.7002 10.3 18.7002C9.90005 18.7002 9.59995 18.7002 9.19995 18.7002H9.09998C7.79998 18.6002 6.6 18.3002 5.5 17.7002C3 16.3002 1.40002 14.1998 0.900024 11.2998C0.800024 10.9998 0.800049 10.5998 0.800049 10.2998C0.800049 9.89981 0.800049 9.60019 0.800049 9.2002C0.800049 9.10019 0.800049 9.1 0.800049 9C0.900049 7.7 1.20005 6.6 1.80005 5.5C3.20005 3 5.29995 1.3999 8.19995 0.899902C8.49995 0.799902 8.89995 0.799805 9.19995 0.799805C9.59995 0.799805 9.90005 0.799805 10.3 0.799805H10.4C11.7 0.899805 12.9 1.1998 14 1.7998C16.5 3.1998 18.1 5.3002 18.6 8.2002C18.6 8.5002 18.6 8.9002 18.7 9.2002ZM7.30005 9.1001C7.60005 9.0001 7.79998 8.9002 8.09998 8.7002C8.49998 8.5002 8.60002 8.1998 8.40002 7.7998C8.00002 6.9998 7.80005 6.1002 7.80005 5.2002C7.80005 4.8002 7.59995 4.6001 7.19995 4.6001C6.59995 4.6001 5.90005 4.6001 5.30005 4.6001C4.90005 4.6001 4.59998 4.7998 4.59998 5.2998C4.59998 6.7998 4.89995 8.3001 5.69995 9.6001C7.49995 12.9001 10.3 14.6002 14.1 14.7002C14.5 14.7002 14.7 14.5001 14.7 14.1001C14.7 13.5001 14.7 12.8001 14.7 12.1001C14.7 11.7001 14.5 11.5 14.1 11.5C13.2 11.5 12.3 11.2999 11.5 10.8999C11.1 10.6999 10.8 10.8002 10.6 11.2002C10.5 11.4002 10.4 11.6999 10.2 11.8999C8.99995 11.2999 8.10005 10.4001 7.30005 9.1001Z" fill="white"/>
</svg>
