<svg width="23" height="16" viewBox="0 0 23 16" fill="none" xmlns="http://www.w3.org/2000/svg">
<path opacity="0.5" d="M21.5999 3.1001C21.3999 2.2001 20.5998 1.5002 19.6998 1.2002C17.9998 0.700195 11.2999 0.700195 11.2999 0.700195C11.2999 0.700195 4.5999 0.700098 2.8999 1.1001C1.9999 1.3001 1.29988 2.1 0.999878 3C0.599878 4.7 0.599854 8.2002 0.599854 8.2002C0.599854 8.2002 0.599878 11.6999 0.999878 13.3999C1.19988 14.2999 1.9999 14.9998 2.8999 15.2998C4.5999 15.7998 11.2999 15.7998 11.2999 15.7998C11.2999 15.7998 17.9998 15.7999 19.6998 15.3999C20.5998 15.1999 21.2999 14.4 21.5999 13.5C21.9999 11.8 21.9999 8.2998 21.9999 8.2998C21.9999 8.2998 22.0999 4.8001 21.5999 3.1001ZM9.19983 11.5V5.1001L14.7999 8.2998L9.19983 11.5Z" fill="white"/>
</svg>
