<svg width="18" height="14" viewBox="0 0 18 14" fill="none" xmlns="http://www.w3.org/2000/svg">
<path d="M0.200195 2.3999C0.200195 2.2999 0.200195 2.2 0.200195 2C0.200195 1.9 0.200293 1.8002 0.300293 1.7002C0.500293 1.2002 0.700293 0.800098 1.30029 0.600098C1.50029 0.600098 1.70027 0.5 1.90027 0.5C6.40027 0.5 11.0002 0.5 15.5002 0.5C15.6002 0.5 15.7003 0.5 15.8003 0.5C16.1003 0.5 16.4002 0.599805 16.6002 0.799805C16.9002 0.999805 17.1002 1.3998 17.2002 1.7998C17.2002 1.8998 17.2002 2.1002 17.2002 2.2002C17.1002 2.5002 17.1003 2.8001 16.9003 3.1001C16.6003 3.7001 16.1002 4.1 15.5002 4.5C13.8002 5.6 12.1002 6.7999 10.5002 7.8999C10.2002 8.0999 9.90022 8.2999 9.60022 8.3999C9.00022 8.6999 8.50027 8.6999 7.90027 8.3999C7.70027 8.2999 7.4002 8.1 7.2002 8C5.5002 6.8 3.70024 5.7 2.00024 4.5C1.00024 4 0.400195 3.2999 0.200195 2.3999Z" fill="white"/>
<path d="M0.200073 4.8999C1.20007 5.8999 2.5001 6.4998 3.6001 7.2998C3.9001 7.4998 4.10015 7.5998 4.40015 7.7998L4.30017 7.8999C2.90017 9.1999 1.60007 10.4998 0.200073 11.7998C0.200073 11.7998 0.200098 11.7999 0.100098 11.8999C0.200098 9.5999 0.200073 7.1999 0.200073 4.8999Z" fill="white"/>
<path d="M17.2001 11.8999L17.1001 11.7998C15.8001 10.4998 14.5001 9.3 13.2001 8L13.1001 7.8999C13.2001 7.8999 13.2001 7.7998 13.2001 7.7998C14.1001 7.1998 15.1001 6.5999 16.0001 5.8999C16.4001 5.5999 16.8002 5.2999 17.3002 4.8999C17.2002 7.1999 17.2001 9.5999 17.2001 11.8999Z" fill="white"/>
<path d="M11.8003 8.6001C13.4003 10.1001 15.0002 11.7002 16.6002 13.2002C16.4002 13.4002 16.1003 13.5 15.8003 13.5C15.7003 13.5 15.6002 13.5 15.5002 13.5C10.9002 13.5 6.40029 13.5 1.80029 13.5C1.40029 13.5 1.00029 13.4002 0.800293 13.2002C2.40029 11.7002 4.00022 10.1001 5.60022 8.6001C5.90022 8.8001 6.3002 9.0998 6.7002 9.2998C7.2002 9.5998 7.7002 9.8 8.2002 10C8.8002 10.1 9.30029 9.9998 9.80029 9.7998C10.4003 9.4998 11.0002 9.1998 11.5002 8.7998C11.6002 8.6998 11.7003 8.7001 11.8003 8.6001Z" fill="white"/>
</svg>
