<svg width="19" height="19" viewBox="0 0 19 19" fill="none" xmlns="http://www.w3.org/2000/svg">
<g opacity="0.5">
<path d="M18.4 15.2998L14.9999 12.3999C14.8999 12.2999 14.8 12.2998 14.7 12.2998C14.6 12.2998 14.3999 12.4 14.2999 12.5C13.8999 13.1 13.4 13.4999 12.9 13.8999C12.8 13.9999 12.7 14.1002 12.7 14.2002C12.7 14.3002 12.6999 14.4 12.7999 14.5L15.7 17.8999C15.9 18.0999 16.1999 18.2998 16.4999 18.2998C16.7999 18.2998 17 18.2 17.2 18L18.4 16.7998C18.6 16.5998 18.7 16.3 18.7 16C18.7 15.7 18.6 15.4998 18.4 15.2998Z" fill="white"/>
<path d="M8.3999 15.6001C10.4999 15.6001 12.3999 14.7999 13.7999 13.3999C15.2999 11.9999 15.9999 10 15.9999 8C15.9999 3.8 12.5999 0.299805 8.29987 0.299805C4.09987 0.299805 0.599854 3.7 0.599854 8C0.599854 12.3 4.1999 15.6001 8.3999 15.6001ZM3.29987 8C3.29987 5.1 5.59988 2.7998 8.49988 2.7998C11.3999 2.7998 13.6999 5.1 13.6999 8C13.6999 9.4 13.1999 10.7002 12.1999 11.7002C11.1999 12.7002 9.89988 13.2002 8.49988 13.2002C5.59988 13.2002 3.29987 10.8 3.29987 8Z" fill="white"/>
</g>
</svg>
