<svg width="21" height="21" viewBox="0 0 21 21" fill="none" xmlns="http://www.w3.org/2000/svg">
<path d="M20.3003 9.59973C20.3003 9.99973 20.3003 10.3998 20.3003 10.7998C20.3003 10.8998 20.3003 10.8998 20.3003 10.9998C20.2003 12.3998 19.8002 13.6998 19.2002 14.8998C17.6002 17.6998 15.3002 19.3998 12.1002 19.9998C11.7002 20.0998 11.3003 20.0997 10.9003 20.1997C10.5003 20.1997 10.1002 20.1997 9.7002 20.1997C9.60019 20.1997 9.60024 20.1997 9.50024 20.1997C8.10024 20.0997 6.80024 19.6997 5.50024 19.0997C2.70024 17.4997 1.00027 15.1998 0.400269 11.9998C0.300269 11.5998 0.300195 11.1998 0.200195 10.7998C0.200195 10.3998 0.200195 9.99973 0.200195 9.59973C0.200195 9.49973 0.200195 9.49978 0.200195 9.39978C0.300195 7.99978 0.700293 6.69976 1.30029 5.49976C2.90029 2.69976 5.20027 0.99978 8.40027 0.39978C8.80027 0.29978 9.20022 0.299707 9.60022 0.199707C10.0002 0.199707 10.4003 0.199707 10.8003 0.199707C10.9003 0.199707 10.9002 0.199707 11.0002 0.199707C12.4002 0.299707 13.7002 0.699805 15.0002 1.2998C17.8002 2.8998 19.5002 5.19978 20.1002 8.39978C20.2002 8.79978 20.2003 9.19973 20.3003 9.59973ZM7.7002 9.49976C8.0002 9.39976 8.30024 9.19973 8.50024 9.09973C8.90024 8.89973 9.10029 8.59973 8.80029 8.09973C8.40029 7.19973 8.20022 6.19971 8.10022 5.19971C8.10022 4.79971 7.80027 4.49976 7.40027 4.49976C6.70027 4.49976 6.00029 4.49976 5.30029 4.49976C4.80029 4.49976 4.60022 4.69971 4.60022 5.19971C4.60022 6.89971 5.00029 8.49976 5.80029 9.99976C7.80029 13.6998 11.0002 15.5997 15.2002 15.6997C15.6002 15.6997 15.9003 15.3998 15.9003 14.9998C15.9003 14.2998 15.9003 13.5998 15.9003 12.7998C15.9003 12.2998 15.7002 12.0997 15.2002 12.0997C14.2002 12.0997 13.2003 11.8998 12.3003 11.3998C11.8003 11.1998 11.5003 11.2998 11.3003 11.7998C11.2003 12.0998 11.0003 12.2997 10.9003 12.5997C9.60027 11.9997 8.5002 10.8998 7.7002 9.49976Z" fill="#0D4CD3"/>
</svg>
