<svg width="26" height="27" viewBox="0 0 26 27" fill="none" xmlns="http://www.w3.org/2000/svg">
<path d="M13.3 0.800049C13.7 0.900049 14.1 0.900053 14.5 1.00005C17.2 1.80005 19 3.50005 19.5 6.30005C20 8.90005 19.2001 11 17.2001 12.8C17.1001 12.9 17 12.9001 16.9 13.0001C17.1 13.1001 17.2 13.1 17.4 13.2001C17.9 13.4001 18.2 13.9001 18 14.5001C17.8 15.0001 17.3001 15.3001 16.7001 15.1001C15.9001 14.9001 15.1 14.6001 14.3 14.5001C12.8 14.3001 11.4 14.4 10 14.8C7.4 15.5 5.30005 17 3.80005 19.2001C3.00005 20.4001 2.4001 21.7001 2.1001 23.1001C1.9001 23.9001 2.40007 24.5001 3.20007 24.5001C4.30007 24.5001 5.5001 24.5001 6.6001 24.5001C7.1001 24.5001 7.5001 24.8001 7.6001 25.2001C7.7001 25.6 7.60007 26.1 7.20007 26.3C7.10007 26.4 7.00002 26.4 6.90002 26.5C5.50002 26.5 4.10007 26.5 2.70007 26.5H2.6001C1.6001 26.3 0.900024 25.8001 0.400024 24.9001C0.200024 24.6001 0.2 24.2001 0 23.9001C0 23.6001 0 23.4001 0 23.1001C0.1 22.6001 0.200024 22.1001 0.400024 21.6001C1.60002 17.9001 4 15.3001 7.5 13.7001C7.9 13.5001 8.30007 13.4001 8.70007 13.2001C8.70007 13.2001 8.70007 13.2001 8.70007 13.1001C8.60007 13.0001 8.6 13.0001 8.5 12.9001C6.5 11.2001 5.70007 9.00006 6.20007 6.40005C6.70007 3.60005 8.50007 1.90005 11.2001 1.10005C11.6001 1.00005 12 1.00005 12.4 0.900055C12.6 0.800055 12.9 0.800049 13.3 0.800049ZM12.8 2.80005C10.2 2.80005 8 5.00005 8 7.60005C8 10.2001 10.1001 12.4001 12.7001 12.4001C15.4001 12.4001 17.6001 10.3001 17.6001 7.60005C17.6001 5.00005 15.4 2.80005 12.8 2.80005Z" fill="white"/>
<path d="M18.9 26.4C18.5 26.2 18 26.1 17.7 25.9C17 25.5 16.7 24.8 16.5 24.1C16.4 23.9 16.4 23.7 16.3 23.4C16.2 22.9 16.5 22.4 17 22.2C17.5 22.1 18 22.3 18.2 22.8C18.3 23.1 18.4 23.5 18.5 23.8C18.6 24.2 18.9 24.3 19.3 24.3C20.3 24.3 21.3 24.3 22.3 24.3C22.6 24.3 22.9 24.2 23 23.8C23.4 22.8 23.7 21.7 23.5 20.6C23.4 20 23.2 19.3 23 18.7C22.9 18.4 22.7 18.3 22.4 18.3C21.4 18.3 20.3 18.3 19.3 18.3C19 18.3 18.7 18.5 18.6 18.8C18.5 19.1 18.4 19.3 18.3 19.6C18.1 20.3 17.8 20.5 17.1 20.5C14.9 20.5 12.8 20.5 10.6 20.5C10.4 20.5 10.3 20.6 10.2 20.7C10 20.9 9.79995 21.1 9.49995 21.3C9.79995 21.6 10.1 21.8 10.3 22C10.4 22 10.5 22.1 10.6 22.1C11.5 22.1 12.3 22.1 13.2 22.1C13.6 22.1 13.9 22.3 14.1 22.6C14.3 22.9 14.3 23.3 14.1 23.6C13.9 23.9 13.6 24.1 13.3 24.1C12.2 24.1 11.1 24.1 9.99995 24.1C9.69995 24.1 9.5 24 9.3 23.8C8.7 23.2 8.20005 22.7 7.60005 22.1C7.20005 21.7 7.20005 21.1 7.60005 20.7C8.20005 20.1 8.7 19.5 9.3 19C9.5 18.8 9.80002 18.7 10.2 18.7C12.3 18.7 14.3 18.7 16.4 18.7C16.6 18.7 16.7 18.6 16.8 18.5C17.3 17.2 18.2 16.5 19.6 16.5C20.5 16.5 21.5 16.5 22.4 16.5C23.7 16.5 24.6 17.1 25.1 18.3C25.4 19.1 25.7 19.9 25.7 20.8V20.9C25.7 21.3 25.7 21.7 25.7 22.1V22.2C25.6 22.8 25.5 23.5 25.3 24.1C25.1 24.8 24.8 25.5 24.1 26C23.7 26.3 23.3 26.4 22.8 26.5C21.4 26.4 20.1 26.4 18.9 26.4Z" fill="white"/>
<path d="M22.5 21.4001C22.5 22.0001 22.1 22.4001 21.5 22.4001C20.9 22.4001 20.5 21.9001 20.5 21.4001C20.5 20.9001 20.9 20.4001 21.5 20.4001C22.1 20.4001 22.5 20.9001 22.5 21.4001Z" fill="white"/>
</svg>
