<svg width="28" height="28" viewBox="0 0 28 28" fill="none" xmlns="http://www.w3.org/2000/svg">
<path d="M19.9999 2.5C17.7999 0.8 15.2999 0 12.4999 0C9.19992 0 5.90002 1.4 3.60002 3.7C-0.799984 8.3 -1.20003 15.2 2.79997 20.2C5.09997 23.1 8.69992 24.8 12.4999 24.8C15.2999 24.8 18 23.9 20.2 22.1L20.3 22L20.3999 22.1C20.3999 22.1 20.3999 22.2 20.4999 22.2C20.4999 22.3 20.6 22.3 20.6 22.4C22.2 24 23.7999 25.6 25.3999 27.2C25.4999 27.3 25.6 27.4 25.6 27.4C25.8 27.6 26.0999 27.7 26.3999 27.7C26.9999 27.7 27.4 27.3 27.6 26.8C27.7 26.3 27.6 25.9 27.2 25.5C26.5 24.8 25.6999 24 24.9999 23.3C24.0999 22.4 23.1999 21.5 22.3999 20.7C22.3999 20.7 22.3 20.6 22.2 20.6C22.2 20.6 22.1 20.6 22.1 20.5L21.9999 20.4L22.1 20.3C24.3 17.4 25.2 14.4 24.8 10.9C24.4 7.4 22.7999 4.6 19.9999 2.5ZM12.6 22.3C9.90002 22.3 7.39992 21.3 5.49992 19.4C3.59992 17.5 2.60002 15 2.60002 12.4C2.60002 7 7.09992 2.5 12.4999 2.5H12.6C18.1 2.5 22.4999 7 22.4999 12.4C22.4999 17.9 18 22.3 12.6 22.3Z" fill="white"/>
</svg>
