<svg width="38" height="38" viewBox="0 0 38 38" fill="none" xmlns="http://www.w3.org/2000/svg">
<path fill-rule="evenodd" clip-rule="evenodd" d="M29.1001 25.9H26.7001C25.8001 25.9 25.5001 25.2001 23.9001 23.5001C22.5001 22.1001 21.9001 22.0001 21.5001 22.0001C21.0001 22.0001 20.9001 22.1 20.9001 22.8V24.9C20.9001 25.5 20.7001 25.8 19.2001 25.8C16.7001 25.8 13.9001 24.3 11.9001 21.4C8.90015 17.2 8.1001 14.1001 8.1001 13.5001C8.1001 13.1001 8.20015 12.8 8.90015 12.8H11.3C11.9 12.8 12.1001 13.1001 12.4001 13.7001C13.6001 17.1001 15.5001 20.1 16.4001 20.1C16.7001 20.1 16.8 20.0001 16.8 19.2001V15.8C16.7 14.2 15.8 14.0001 15.8 13.5001C15.8 13.2001 16.0001 12.9 16.4001 12.9H20.2001C20.7001 12.9 20.9001 13.2 20.9001 13.8V18.5001C20.9001 19.0001 21.1 19.2001 21.3 19.2001C21.6 19.2001 21.9001 19.0001 22.4001 18.5001C24.1001 16.6001 25.3 13.6 25.3 13.6C25.5 13.2 25.7 12.9 26.3 12.9H28.7001C29.4001 12.9 29.6001 13.3 29.4001 13.8C29.1001 15.2 26.2001 19.3 26.2001 19.3C25.9001 19.7 25.8001 19.9 26.2001 20.4C26.5001 20.8 27.3 21.5 27.8 22.1C28.8 23.3 29.6 24.2 29.8 24.9C30.2 25.6 29.8001 25.9 29.1001 25.9Z" fill="#D2D9E1"/>
<path d="M19.3 37H18.9001C9.10015 37 1.1001 29 1.1001 19.2V18.8C1.1001 8.99999 9.10015 1 18.9001 1H19.3C29.1 1 37.1001 8.99999 37.1001 18.8V19.2C37.1001 29.1 29.1 37 19.3 37Z" stroke="#D2D9E1" stroke-width="1.0951" stroke-miterlimit="10"/>
</svg>
