<svg width="38" height="38" viewBox="0 0 38 38" fill="none" xmlns="http://www.w3.org/2000/svg">
<path d="M10.1002 18.1001C14.6002 16.1001 17.7002 14.8001 19.2002 14.2001C23.5002 12.4001 24.4002 12.1001 25.0002 12.1001C25.1002 12.1001 25.4002 12.1001 25.6002 12.3001C25.8002 12.4001 25.8002 12.6001 25.8002 12.7001C25.8002 12.8001 25.8002 13.1001 25.8002 13.3001C25.6002 15.8001 24.6002 21.7001 24.0002 24.5001C23.8002 25.7001 23.4003 26.1001 22.9003 26.1001C22.0003 26.2001 21.3003 25.5001 20.4003 24.9001C19.0003 24.0001 18.3003 23.4001 16.9003 22.6001C15.4003 21.6001 16.4002 21.0001 17.2002 20.1001C17.4002 19.9001 21.4002 16.2001 21.5002 15.9001C21.5002 15.9001 21.5003 15.7001 21.4003 15.6001C21.3003 15.5001 21.2002 15.5001 21.1002 15.6001C21.0002 15.6001 18.8002 17.1001 14.5002 19.9001C13.9002 20.3001 13.3002 20.5001 12.8002 20.5001C12.2002 20.5001 11.2003 20.2001 10.4003 19.9001C9.40027 19.6001 8.7002 19.4001 8.7002 18.9001C8.9002 18.6001 9.30022 18.4001 10.1002 18.1001Z" fill="#D2D9E1"/>
<path d="M19.2 37H18.7999C8.99993 37 1 29 1 19.2V18.8C1 8.99999 8.99993 1 18.7999 1H19.2C29 1 37 8.99999 37 18.8V19.2C37 29.1 29.1 37 19.2 37Z" stroke="#D2D9E1" stroke-width="1.0951" stroke-miterlimit="10"/>
</svg>
