<svg width="32" height="24" viewBox="0 0 32 24" fill="none" xmlns="http://www.w3.org/2000/svg">
<path d="M22.3999 14.3423C23.2999 13.0423 23.7998 11.5423 23.7998 9.84229C23.7998 9.34229 23.7998 8.84229 23.6998 8.34229L18.7998 17.1423C20.1998 16.7423 21.4999 15.7423 22.3999 14.3423Z" fill="white"/>
<path d="M23.1 2.24229C23.1 2.24229 23.1 2.14229 23.1 2.04229C23.1 1.84229 22.9999 1.64229 22.7999 1.54229C22.7999 1.54229 22.7 1.44229 22.5 1.34229C22.3 1.24229 22.1 1.14229 21.9 1.04229C21.7 0.942286 21.4999 0.842287 21.2999 0.742287C21.0999 0.642287 20.8999 0.542284 20.7999 0.442284C20.5999 0.342284 20.5 0.342285 20.5 0.342285C20.3 0.342285 20.1 0.442284 20 0.642284L19 2.34229C17.9 2.14229 16.8999 2.04229 15.7999 2.04229C12.5999 2.04229 9.69998 2.84228 7.09998 4.44228C4.39998 6.04228 2.20002 8.24228 0.400024 10.9423C0.200024 11.3423 0 11.7423 0 12.1423C0 12.5423 0.100024 13.0423 0.400024 13.3423C1.40002 14.9423 2.69998 16.3423 4.09998 17.6423C5.49998 18.9423 7.09995 19.9423 8.69995 20.6423C8.19995 21.5423 7.90002 22.0423 7.90002 22.1423C7.90002 22.3423 7.99995 22.5423 8.19995 22.6423C9.59995 23.4423 10.4 23.8423 10.6 23.8423C10.8 23.8423 11 23.7423 11.1 23.5423L12 21.9423C13.2 19.7423 15.1 16.3423 17.6 11.9423C20 7.74228 21.9 4.44229 23.1 2.24229ZM9.90002 18.7423C6.80002 17.3423 4.30002 15.1423 2.40002 12.1423C4.20002 9.34229 6.39998 7.34228 9.09998 5.94228C8.39998 7.14228 8 8.44228 8 9.94228C8 11.2423 8.30002 12.4423 8.90002 13.5423C9.50002 14.6423 10.2999 15.6423 11.2999 16.3423L9.90002 18.7423ZM16.5 6.04228C16.3 6.24228 16.1 6.24229 15.9 6.24229C14.9 6.24229 13.9999 6.64229 13.2999 7.34229C12.5999 8.04228 12.2 8.94228 12.2 9.94228C12.2 10.1423 12.1 10.3423 12 10.5423C11.8 10.7423 11.6 10.7423 11.4 10.7423C11.2 10.7423 10.9999 10.6423 10.7999 10.5423C10.5999 10.3423 10.6 10.1423 10.6 9.94228C10.6 8.44228 11.1 7.24229 12.2 6.14229C13.3 5.04229 14.5 4.54228 16 4.54228C16.2 4.54228 16.4 4.64229 16.6 4.74229C16.8 4.94229 16.7999 5.14229 16.7999 5.34229C16.6999 5.64229 16.7 5.84228 16.5 6.04228Z" fill="white"/>
<path d="M31.2999 10.9422C30.5999 9.84224 29.7999 8.74224 28.7999 7.74224C27.7999 6.74224 26.7 5.84224 25.6 5.04224L24.5 7.04224C26.5 8.44224 28.1 10.1422 29.5 12.2422C28.1 14.4422 26.3 16.2422 24.2 17.6422C22.1 19.0422 19.7999 19.8422 17.2999 20.0422L16 22.3422C18.6 22.3422 21.1 21.7422 23.4 20.6422C25.7 19.5422 27.8 17.9422 29.5 15.9422C30.3 14.9422 31 14.1422 31.4 13.3422C31.6 12.9422 31.7999 12.5422 31.7999 12.1422C31.6999 11.7422 31.5999 11.3422 31.2999 10.9422Z" fill="white"/>
</svg>
